<?xml version="1.0" encoding="utf-8"?>
<!-- Svg Vector Icons : http://www.onlinewebfonts.com/icon -->
<!DOCTYPE svg PUBLIC "-//W3C//DTD SVG 1.1//EN" "http://www.w3.org/Graphics/SVG/1.1/DTD/svg11.dtd">
<svg version="1.1" xmlns="http://www.w3.org/2000/svg" xmlns:xlink="http://www.w3.org/1999/xlink" x="0px" y="0px" viewBox="0 0 256 256" enable-background="new 0 0 256 256" xml:space="preserve">
<metadata> Svg Vector Icons : http://www.onlinewebfonts.com/icon </metadata>
<g><g><g><path fill="#000000" d="M244.2,12.8c0,0-132.7-7.9-173.1,51.6c-27.4,44.3-31.9,88.5,5.7,127.9c0,0-15.3,46.6-56.3,35.9c0,0-16.9-2.6-7.8,7.8c0,0,36,31.7,73.6-34.8c0,0,82.5,51.1,127.7-10.4C257,132.3,244.2,12.8,244.2,12.8L244.2,12.8z M181.1,79l32.7,12.2c0,0-35.2-6.4-36.8-3.9l-21.8,29.9c0,0,27.6-2.6,47,9c0,0-51.8-4.1-58.3,2.4l-21.2,32.5c0,0,37.1-4.5,58,8.5c0,0-62.8-12.2-73.5,8.2l-13,15.6c0,0-13,6.5-11.7-1.3l19.5-26.1c0,0,15.1-31.8-5.2-71.6c0,0,23.7,10.6,15.9,64l28.7-39.1c0,0-4-32.7-17-53.6c0,0,24.5,15.5,23.2,44.3c0,0,19.5-18.2,19.5-31.3s0.3-34.3,0.3-34.3s8.5,23.8,7.2,29c0,0,26.3-22.1,40.7-22.1L181.1,79z"/></g></g></g>
</svg>