<svg version="1.1" id="Layer_1" xmlns="http://www.w3.org/2000/svg" xmlns:xlink="http://www.w3.org/1999/xlink" x="0px" y="0px"
	 width="100%" viewBox="0 0 638 844" enable-background="new 0 0 638 844" xml:space="preserve">
<path fill="#FFFFFF" opacity="1.000000" stroke="none" 
	d="
M639.000000,525.000000 
	C639.000000,537.020874 639.000000,549.041809 638.620239,561.228394 
	C637.827881,562.237976 637.109314,563.061523 637.051453,563.929016 
	C636.626648,570.298767 636.338013,576.677490 635.994995,583.052795 
	C635.951050,583.868530 635.985962,584.728455 635.736755,585.486511 
	C634.553040,589.086792 632.042236,592.751953 632.302307,596.221802 
	C632.849487,603.521667 628.764465,609.429077 627.601013,616.188599 
	C626.544495,622.326965 622.703186,627.996826 620.009644,633.836426 
	C619.144409,635.712219 617.590210,637.361206 617.101318,639.302795 
	C615.553101,645.451904 610.289551,648.860229 606.697205,653.394470 
	C604.374329,656.326416 600.937866,658.510376 598.958496,661.958557 
	C597.688782,664.170593 596.692749,666.748352 594.874268,668.384460 
	C592.561401,670.465271 589.557495,671.719971 589.928040,675.614685 
	C589.988831,676.253235 589.287048,677.040161 588.794678,677.641418 
	C587.201599,679.586670 584.500488,681.288269 584.112122,683.426208 
	C583.122925,688.872864 578.546265,692.305969 577.455078,698.023315 
	C576.594910,702.530640 572.724243,706.648315 571.521729,711.898376 
	C571.019897,714.089539 568.799866,716.498413 568.790100,719.434204 
	C568.789490,719.616943 568.223083,719.746887 568.117737,719.987854 
	C566.392944,723.932007 564.547668,727.834717 563.082397,731.874817 
	C562.566833,733.296143 563.000000,735.061646 563.000000,736.534546 
	C561.079956,736.534546 559.602356,736.534546 558.405151,736.534546 
	C559.281128,733.806641 560.552124,731.181763 560.895996,728.440613 
	C561.328064,724.995605 561.000061,721.455322 561.003723,717.956177 
	C561.004089,717.623779 560.985291,717.280884 561.058594,716.961975 
	C561.127258,716.663086 561.258118,716.178406 561.444031,716.135864 
	C565.653137,715.173462 563.850464,711.818604 563.931824,709.448853 
	C564.137512,703.457336 563.948914,697.453247 564.044922,691.456238 
	C564.063293,690.308716 564.583679,689.140625 565.010254,688.035156 
	C565.605530,686.492371 566.892639,685.006592 566.911438,683.484375 
	C567.067566,670.822693 567.010254,658.158142 566.982239,645.494568 
	C566.979736,644.357666 567.087524,642.470032 566.535217,642.206360 
	C562.863647,640.453247 564.090820,637.260620 564.033020,634.524536 
	C563.920471,629.194763 564.046204,623.860413 563.965820,618.529480 
	C563.946838,617.272522 563.624878,615.980774 563.223877,614.777771 
	C562.578003,612.839966 561.357666,611.015198 561.094360,609.047058 
	C560.721985,606.264221 561.033264,603.393738 560.976135,600.562256 
	C560.962036,599.860291 560.641602,598.551880 560.483948,598.555237 
	C556.698486,598.636047 558.315918,595.759521 558.025635,594.054688 
	C556.951599,587.746399 555.980530,581.420593 554.971924,575.101196 
	C554.945740,574.936829 554.946106,574.627930 554.912354,574.624878 
	C549.476562,574.130981 552.870178,569.965576 552.051331,567.588806 
	C550.819458,564.013000 550.943665,558.210327 548.680969,557.123474 
	C544.261353,555.000610 546.825195,552.069702 546.026001,549.675720 
	C545.823547,549.069214 546.082336,547.815796 545.896545,547.768188 
	C540.228210,546.316956 544.501648,539.830566 540.222412,536.953552 
	C537.826294,535.342529 538.037659,530.223755 536.394226,527.036011 
	C533.922363,522.241455 530.736877,517.821167 528.064514,513.122437 
	C522.707947,503.704254 517.701050,494.079773 512.101501,484.811371 
	C510.267517,481.775818 507.750000,479.263824 505.995880,475.937683 
	C503.596649,471.388184 498.859772,468.514221 496.363342,463.354584 
	C493.593384,457.629700 488.007782,453.409393 483.960571,448.178162 
	C475.768127,437.589020 465.343872,428.710236 455.714813,419.253571 
	C446.553375,410.256195 437.302338,401.346619 427.932831,392.566956 
	C425.593567,390.375000 422.673767,388.790558 419.970337,387.003143 
	C417.843475,385.596893 415.437897,384.540222 413.533905,382.891937 
	C412.067200,381.622223 411.520935,378.736847 409.988495,378.191833 
	C403.607056,375.922272 399.686005,370.485809 394.336761,366.975861 
	C392.261963,365.614471 389.210327,365.630280 388.725037,362.367615 
	C387.297913,362.616058 386.024628,364.046051 385.064575,361.032928 
	C384.562836,359.458191 380.231140,359.726501 379.605988,356.421631 
	C379.561676,356.187408 377.094879,358.206696 376.058319,355.086670 
	C375.539612,353.525452 371.247803,353.321899 370.258545,350.234650 
	C370.119812,349.801666 362.743073,346.355682 361.963898,345.833679 
	C358.505127,343.516602 355.051544,339.584656 351.488251,339.465668 
	C347.633514,339.336884 347.176880,333.936005 343.287903,335.744843 
	C343.425873,330.277008 337.393951,333.827057 335.311249,330.216461 
	C333.745087,327.501373 328.850830,326.777832 325.542450,324.976105 
	C322.108917,323.106201 318.840271,320.935394 315.427368,319.025116 
	C311.763062,316.974152 308.012421,315.077728 304.304535,313.104340 
	C303.041046,312.431946 301.845184,311.601868 300.527710,311.067383 
	C296.873749,309.584869 293.154755,308.261597 289.512085,306.753235 
	C289.079468,306.574066 288.881653,305.103821 288.707794,305.129578 
	C284.363708,305.772552 281.865967,301.776947 278.121368,300.931549 
	C277.584625,300.810364 277.062714,299.077118 276.885223,299.136658 
	C272.172394,300.718353 269.768311,296.012054 265.950531,294.875977 
	C258.121124,292.546112 251.089813,287.623260 243.582016,284.081421 
	C240.437134,282.597839 236.909576,281.931427 233.573883,280.838867 
	C233.147995,280.699371 232.830734,280.228302 232.463135,279.910858 
	C232.463135,279.910858 224.683594,275.000458 224.683594,275.000458 
	C222.828384,274.204834 220.933868,273.488556 219.127869,272.593658 
	C216.857941,271.468842 214.651627,270.213745 212.434204,268.985382 
	C210.207977,267.752106 207.422470,266.961792 205.906967,265.129608 
	C202.707260,261.261292 197.594498,260.270660 194.377975,256.880188 
	C191.220444,253.551880 186.581177,253.308838 183.290176,249.508621 
	C179.487000,245.116989 172.526260,243.667999 168.723312,238.433258 
	C168.624649,238.297485 167.514725,239.091492 167.151642,238.907806 
	C166.580673,238.618973 166.317291,237.783707 165.796173,237.324524 
	C162.712280,234.607178 159.607895,229.854630 156.478683,229.830093 
	C153.391830,229.805878 153.747513,227.897293 152.458221,227.108307 
	C149.731934,225.439941 146.892899,223.873245 144.445221,221.847794 
	C137.282669,215.920914 130.244308,209.840912 123.252289,203.712540 
	C120.520264,201.317932 118.041397,198.634506 115.447220,196.082626 
	C114.975288,196.204361 114.503349,196.326096 114.031410,196.447830 
	C114.348885,198.620270 114.123306,201.085968 115.103241,202.900681 
	C116.841850,206.120392 120.146843,208.114868 121.597534,211.903397 
	C123.682167,217.347473 129.487213,220.031525 132.820175,224.831497 
	C135.492844,228.680542 139.801529,231.362122 143.161972,234.780243 
	C144.545609,236.187622 145.213699,238.271622 146.452591,239.856003 
	C147.594208,241.315964 148.950821,242.666626 150.419327,243.797043 
	C152.202103,245.169388 154.273087,246.162491 156.091736,247.494049 
	C159.556366,250.030701 161.121994,255.121796 166.471252,255.165833 
	C166.843628,255.168915 167.310394,255.697281 167.563614,256.090576 
	C168.623657,257.737122 169.763062,260.930664 170.614243,260.849213 
	C175.433853,260.388092 175.568283,265.435638 178.590424,266.957001 
	C181.198593,268.269989 184.334747,269.636078 185.780441,271.906494 
	C188.143326,275.617371 194.118958,274.451965 195.056198,279.504425 
	C195.071518,279.587036 195.612823,279.511261 195.858688,279.621216 
	C198.443085,280.777344 201.315170,281.555420 203.536697,283.206360 
	C209.444305,287.596649 215.066101,292.371124 220.817978,296.972321 
	C221.184891,297.265839 221.758499,297.301819 222.123413,297.596832 
	C224.892853,299.835693 229.860596,298.578186 231.134491,303.238068 
	C231.168793,303.363525 231.844894,303.232697 232.144684,303.379120 
	C234.617096,304.586761 237.750443,305.265900 239.364883,307.203766 
	C241.549866,309.826477 244.406311,310.884003 247.075470,312.424347 
	C249.449661,313.794434 252.017227,314.829407 254.499435,316.012268 
	C254.499435,316.012268 261.462952,321.006622 261.462952,321.006622 
	C265.817871,322.712067 268.741211,326.497528 273.686127,327.899628 
	C278.536987,329.275024 282.404114,333.958649 286.847046,336.978394 
	C291.456055,340.111053 296.225220,343.009644 300.947296,345.973969 
	C307.588989,350.143372 314.234406,354.307404 320.915771,358.412689 
	C323.052094,359.725311 325.452911,360.641998 327.476074,362.096680 
	C330.930511,364.580566 334.056335,367.530457 337.563690,369.928436 
	C339.871185,371.506104 342.887756,372.089050 345.090973,373.768036 
	C349.702454,377.282227 353.841766,381.415985 358.453308,384.930084 
	C361.738373,387.433319 365.894714,388.878052 368.926117,391.611481 
	C374.941345,397.035400 380.336517,402.867401 387.331055,407.468811 
	C394.979645,412.500519 400.799591,420.312805 407.413574,426.916168 
	C411.540680,431.036682 415.662415,435.162567 419.786194,439.286377 
	C423.791473,443.291626 427.862061,447.234283 431.782440,451.320984 
	C435.528351,455.225861 439.729584,458.889648 442.601715,463.381287 
	C445.400177,467.757629 449.287903,471.100464 452.135101,475.408875 
	C455.356476,480.283417 459.650299,484.444855 463.423218,488.961914 
	C464.661194,490.444061 465.965332,491.949280 466.824036,493.653168 
	C468.515930,497.010132 469.681854,500.643341 471.492401,503.926788 
	C474.475555,509.336731 477.753754,514.586853 481.000488,519.847046 
	C482.195374,521.782959 484.659973,523.508606 484.750549,525.415466 
	C484.879272,528.125305 485.632538,529.825378 487.200531,532.008118 
	C489.109497,534.665527 490.057404,538.208313 490.725494,541.508972 
	C491.438019,545.029114 495.445312,547.325806 494.221588,551.462158 
	C494.193756,551.556152 494.795959,551.747070 494.901581,551.983337 
	C496.620422,555.830139 499.099792,559.554749 499.794342,563.585022 
	C500.617920,568.364075 503.205597,572.524963 503.601471,577.619141 
	C503.782562,579.950073 505.457794,583.430115 505.987091,586.543213 
	C506.096222,587.185181 505.883789,588.239990 506.213287,588.433167 
	C512.378357,592.048706 508.041840,598.960327 511.358276,604.325317 
	C515.124817,610.418396 514.029114,619.536682 514.958191,627.350464 
	C515.192383,629.320068 514.290833,632.422424 515.271912,633.137634 
	C520.250366,636.766785 517.440918,641.512390 517.688477,645.761597 
	C517.969116,650.579590 516.151245,656.893188 518.561768,659.883057 
	C521.943176,664.077087 520.772400,667.852722 520.866821,671.728577 
	C521.043030,678.961914 520.150940,686.216309 520.196228,693.458862 
	C520.284058,707.526978 520.721130,721.592896 520.985962,735.660217 
	C521.010803,736.979248 521.321106,739.111389 520.681152,739.492371 
	C516.322021,742.087219 518.253296,746.172180 518.067993,749.631165 
	C517.801758,754.600403 518.031128,759.594910 517.975647,764.577820 
	C517.963318,765.679077 517.791748,766.827454 517.435425,767.865662 
	C516.717468,769.957642 515.152893,771.975220 515.111084,774.047241 
	C514.879395,785.539795 515.006531,797.039490 514.991150,808.536743 
	C514.989380,809.859924 515.367126,811.963257 514.717712,812.380798 
	C510.147278,815.319214 512.237000,819.745667 512.084167,823.508545 
	C511.793701,830.661743 512.000000,837.835022 512.000000,845.000000 
	C502.312439,845.000000 492.624878,845.000000 482.468750,844.623108 
	C482.659729,843.458130 483.767059,842.743225 483.909698,841.870667 
	C485.363220,832.979614 486.680298,824.065796 487.981201,815.150513 
	C488.218903,813.521423 488.138062,811.847961 488.329620,810.209656 
	C489.285828,802.032349 490.427826,793.873474 491.198822,785.679382 
	C491.523071,782.233459 490.610779,778.642029 491.133636,775.251404 
	C491.752411,771.238770 489.032715,769.742615 486.561768,769.190552 
	C482.826904,768.355896 479.279785,767.989197 475.448669,766.490967 
	C468.590668,763.809143 460.586517,764.135559 453.100311,762.957703 
	C447.453430,762.069214 441.804932,761.038208 436.272888,759.619446 
	C431.568512,758.413025 427.057037,756.474060 422.410248,755.018738 
	C416.826660,753.270020 411.104889,751.928772 405.603058,749.963013 
	C401.080933,748.347168 396.795532,746.070251 392.393524,744.112671 
	C392.131653,743.996277 391.727173,744.022766 391.453552,744.137085 
	C386.877411,746.049438 384.492065,741.130127 380.431335,740.576233 
	C376.327515,740.016479 372.646545,736.770935 368.623108,735.074768 
	C365.460968,733.741760 361.995758,733.141602 358.785431,731.903931 
	C356.443573,731.001038 354.234406,729.693848 352.079956,728.380127 
	C349.312683,726.692749 346.821869,724.467957 343.912994,723.119812 
	C340.801483,721.677673 336.202271,721.945068 334.329193,719.718872 
	C332.090729,717.058472 328.331329,718.040710 327.467957,716.444641 
	C324.706268,711.339294 318.529633,712.137634 315.179352,708.211975 
	C313.672943,706.446838 310.751373,705.896545 308.483124,704.772461 
	C306.351868,703.716187 304.060852,702.873840 302.149933,701.504883 
	C298.558228,698.931824 295.317078,695.865295 291.699860,693.332886 
	C285.646301,689.094788 279.251892,685.332764 273.301025,680.961792 
	C267.908661,677.001221 262.957214,672.445007 257.736115,668.244934 
	C253.273651,664.655212 248.318665,661.592529 244.250671,657.612793 
	C228.521942,642.225220 212.974731,626.648499 197.567993,610.938171 
	C194.209381,607.513306 191.877335,603.106201 188.779037,599.396545 
	C182.506348,591.886047 176.031891,584.544189 169.645706,577.128418 
	C169.435333,576.884155 169.279160,576.593018 169.099854,576.322266 
	C165.504990,570.893982 161.951416,565.437805 158.301193,560.047058 
	C155.945374,556.567871 153.496277,553.148682 150.990234,549.776001 
	C150.001846,548.445740 148.472229,547.471985 147.661819,546.063782 
	C145.257614,541.886230 143.319595,537.428467 140.763962,533.353210 
	C138.113419,529.126587 134.811188,525.312561 132.075363,521.133850 
	C130.645309,518.949646 129.954453,516.296021 128.688461,513.986572 
	C126.907059,510.736908 124.855858,507.636444 123.003746,504.423859 
	C120.871368,500.725250 118.901093,496.932068 116.727173,493.258820 
	C114.982986,490.311707 112.707825,487.638519 111.261726,484.564606 
	C109.002632,479.762451 107.379868,474.664825 105.234505,469.804077 
	C103.379288,465.600677 101.492470,461.348785 99.037048,457.488922 
	C96.135391,452.927643 93.507004,448.357483 92.483910,442.989136 
	C92.368790,442.385071 91.958176,441.827454 91.640518,441.273590 
	C90.101959,438.591309 88.421494,435.981598 87.032059,433.224823 
	C85.278664,429.745880 83.742310,426.156647 82.147667,422.599152 
	C81.701294,421.603363 81.321838,420.568909 81.010902,419.522705 
	C79.987869,416.080475 79.023628,412.620728 77.997971,409.179321 
	C77.874275,408.764282 77.461578,408.444427 77.269684,408.039337 
	C75.502220,404.307983 73.470497,400.669464 72.080093,396.801056 
	C70.703148,392.970093 69.995972,388.899994 68.939377,384.949677 
	C68.840576,384.580292 68.225105,384.372345 68.049538,383.996124 
	C67.367554,382.534729 66.660469,381.069214 66.174423,379.538025 
	C65.877563,378.602875 66.241669,376.806122 65.840157,376.656799 
	C61.842674,375.170166 63.167854,371.864563 62.979931,369.058197 
	C62.938339,368.437134 62.703831,367.308136 62.502850,367.295563 
	C58.519958,367.045990 60.240757,364.029449 60.044529,362.119202 
	C59.601990,357.811218 55.119156,354.554443 56.867298,349.706299 
	C56.899307,349.617523 56.700649,349.431152 56.590248,349.307617 
	C52.901295,345.179474 52.394066,339.822754 51.010635,334.809509 
	C50.510338,332.996552 50.230927,331.118530 49.663044,329.329773 
	C49.278141,328.117401 48.303158,327.061920 48.057163,325.842468 
	C47.603863,323.595215 47.072224,321.742767 45.807487,319.556885 
	C43.783882,316.059387 44.112976,311.197876 42.313976,306.857391 
	C39.997055,301.267273 39.936611,294.742126 38.896568,288.621033 
	C38.871662,288.474457 38.783272,288.249084 38.678429,288.218475 
	C33.854507,286.812103 36.714535,282.866486 36.034683,280.109222 
	C35.725872,278.856750 36.130630,276.533875 35.633625,276.361267 
	C30.896072,274.716125 33.709679,270.872223 33.034485,268.112793 
	C32.727737,266.859131 33.133141,264.536163 32.636185,264.363251 
	C27.905258,262.717255 30.666395,258.883911 30.046749,256.113556 
	C29.726614,254.682312 30.435720,252.199509 29.749735,251.803696 
	C25.032736,249.081909 27.753119,244.709915 26.989769,241.161133 
	C26.641855,239.543701 28.294744,236.846359 24.691727,236.821243 
	C24.455175,236.819595 24.201609,235.132278 24.005066,234.218491 
	C23.040344,229.733154 25.883865,224.901886 21.327803,220.471558 
	C19.491247,218.685715 21.394066,213.395996 20.885597,209.801254 
	C20.428289,206.568207 18.672283,203.530502 18.100321,200.298462 
	C17.614285,197.551971 18.052441,194.649704 17.969786,191.819626 
	C17.942801,190.895569 17.561331,189.181839 17.346178,189.182510 
	C13.757712,189.193634 15.139292,186.515381 15.050080,184.876221 
	C14.878295,181.719849 15.055422,178.546173 14.978464,175.382309 
	C14.934828,173.588348 15.296822,170.718964 14.399768,170.202148 
	C11.119851,168.312454 12.105415,165.507797 12.020615,162.913010 
	C11.874024,158.427505 13.556089,152.638672 11.364449,149.769836 
	C8.446841,145.950699 9.311006,142.560532 9.068230,138.944412 
	C8.778696,134.631821 9.032500,130.284454 8.971617,125.953278 
	C8.959883,125.118561 8.716847,124.222061 8.344043,123.471527 
	C7.655053,122.084473 6.142078,120.801384 6.106451,119.445190 
	C5.892123,111.286591 6.037841,103.119186 5.963963,94.955635 
	C5.951161,93.541023 5.594887,92.090103 5.167474,90.728073 
	C4.555960,88.779373 3.103888,86.900169 3.094487,84.985970 
	C2.956999,56.991165 3.000000,28.995478 3.000000,1.000000 
	C6.361288,1.000000 9.722575,1.000000 13.223156,1.337646 
	C14.570230,3.934433 16.054493,6.092944 16.921843,8.475990 
	C18.266970,12.171734 18.505665,16.425371 20.446924,19.714470 
	C23.792494,25.382919 28.069599,30.504026 31.988026,35.831108 
	C34.964321,39.877365 37.977158,43.896976 40.998711,47.909637 
	C43.742241,51.553070 46.079475,55.651070 49.388161,58.684418 
	C53.998352,62.910961 57.414757,68.223869 63.875473,70.911118 
	C68.556084,72.857948 71.628723,78.468040 75.727974,82.094666 
	C78.019661,84.122124 81.022171,85.322090 83.564026,87.096046 
	C88.177925,90.316101 92.735802,93.622330 97.209900,97.033157 
	C98.541321,98.048164 100.372765,100.735992 100.526909,100.626091 
	C104.421638,97.849319 104.025116,106.359230 107.772011,103.326355 
	C109.538330,107.911873 114.369583,108.102104 117.804550,110.287003 
	C119.324158,111.253601 121.053200,111.892769 122.564377,112.870377 
	C125.562531,114.809952 128.500748,116.845688 131.412247,118.914146 
	C132.731277,119.851242 133.778809,121.307510 135.209839,121.921661 
	C138.280930,123.239670 142.124619,123.443985 144.520844,125.453270 
	C146.877625,127.429497 150.701340,127.173889 151.744675,129.126511 
	C154.405304,134.105896 160.435898,132.780731 163.634628,136.659851 
	C165.156586,138.505539 168.347595,139.088150 170.879868,139.960373 
	C174.467041,141.195969 178.147491,142.159653 181.776199,143.278137 
	C182.047897,143.361877 182.182953,143.817780 182.451614,143.993546 
	C185.022171,145.675354 187.438309,148.264221 190.230423,148.773087 
	C194.052399,149.469666 196.675873,153.891724 201.117325,152.060211 
	C201.526535,156.168762 204.733368,154.719574 207.047501,155.069611 
	C207.249420,155.100159 207.464874,155.365250 207.583710,155.573044 
	C209.888794,159.603607 214.797775,158.390030 218.114929,160.800552 
	C220.882019,162.811340 224.918427,163.074341 228.388885,164.123947 
	C228.480499,164.151657 228.548386,164.316559 228.593491,164.430847 
	C230.549179,169.386505 237.333252,166.067978 239.527466,170.729767 
	C239.560394,170.799698 240.875870,170.146332 241.623062,170.036545 
	C242.251938,169.944153 243.325790,169.924347 243.517502,170.261734 
	C245.891434,174.439590 250.589905,174.724380 254.275208,176.522461 
	C257.303162,177.999802 260.920746,178.264511 264.266754,179.107300 
	C264.424225,179.146957 264.415253,179.729309 264.596191,179.811554 
	C268.562347,181.614105 272.536316,183.400513 276.536285,185.126160 
	C276.930725,185.296326 277.512878,184.969635 277.991058,185.023376 
	C278.572845,185.088745 279.645752,185.387589 279.635468,185.457718 
	C279.114716,189.007996 281.880035,187.511047 283.399261,188.047546 
	C285.036560,188.625748 286.496490,189.694595 288.120880,190.325089 
	C289.247894,190.762527 290.516388,190.861267 291.732544,191.035187 
	C292.704926,191.174240 293.693695,191.198532 294.675201,191.273773 
	C294.322052,195.849960 297.899475,193.251877 299.643768,194.010712 
	C300.764252,194.498169 301.816223,195.146973 302.945770,195.608887 
	C304.257019,196.145096 305.602814,196.615097 306.965790,197.000046 
	C307.850983,197.250046 308.929321,197.053238 309.687317,197.475952 
	C313.239166,199.456650 316.609863,201.782730 320.238770,203.598663 
	C323.615173,205.288208 327.154083,206.762970 330.767487,207.844147 
	C336.706573,209.621201 342.243408,212.547333 347.941681,214.491379 
	C354.309113,216.663712 359.843475,220.331619 366.118286,222.389023 
	C370.418091,223.798843 374.425995,225.599701 378.440582,227.789169 
	C383.881012,230.756287 390.160706,232.144104 395.951111,234.523849 
	C400.009521,236.191788 403.785675,238.537521 407.813965,240.290833 
	C410.545074,241.479523 414.193176,241.406891 416.191284,243.245667 
	C419.611816,246.393448 423.365112,248.097610 427.705933,249.037689 
	C428.144379,249.132629 428.551697,249.429962 428.941193,249.683014 
	C431.656982,251.447418 434.224182,253.512970 437.113312,254.917969 
	C440.061188,256.351501 444.975403,256.282837 446.075562,258.403717 
	C447.916077,261.951874 450.793365,260.169617 452.777374,261.491333 
	C455.467621,263.283539 458.049042,265.243011 460.776062,266.975037 
	C463.740112,268.857666 466.744049,270.705658 469.867371,272.300995 
	C472.659424,273.727112 475.636322,274.791779 478.535126,276.007690 
	C478.978882,276.193817 479.527283,276.228577 479.881866,276.514008 
	C483.361847,279.315186 486.713684,282.286102 490.299805,284.941650 
	C493.161194,287.060516 496.384064,288.685974 499.293152,290.746887 
	C504.949036,294.753723 510.419403,299.024536 516.111206,302.977905 
	C522.229736,307.227539 528.416870,311.293182 533.490417,316.908875 
	C538.175415,322.094513 543.466370,326.728180 548.254089,331.826813 
	C552.628662,336.485382 557.685608,340.434021 561.466248,345.752014 
	C564.143433,349.517700 567.975220,352.460297 571.266724,355.794952 
	C571.592712,356.125244 571.720398,356.643097 571.981445,357.047211 
	C573.429810,359.289276 574.772522,361.613251 576.384521,363.731781 
	C577.725952,365.494812 579.674622,366.830688 580.852905,368.675964 
	C583.744141,373.204102 586.212463,378.002563 589.109863,382.526459 
	C591.128723,385.678772 595.468445,388.575256 595.439026,391.553101 
	C595.377380,397.788574 603.147156,399.636322 602.029053,405.768646 
	C601.981384,406.030487 602.137329,406.376801 602.294983,406.621552 
	C604.183411,409.552887 606.355896,412.338684 607.913635,415.434509 
	C609.336853,418.262848 609.864807,421.533600 611.213013,424.409851 
	C612.907532,428.024994 615.226807,431.347717 616.914612,434.965454 
	C618.229797,437.784454 619.055359,440.841705 619.984619,443.828552 
	C621.254333,447.909454 622.329224,452.052094 623.645386,456.117188 
	C625.348328,461.377014 628.389648,466.518707 628.694275,471.835083 
	C629.062256,478.256683 632.431213,483.587769 633.239807,489.963470 
	C634.246216,497.899078 635.553833,506.040924 636.920166,514.055237 
	C637.417114,516.970032 636.878845,520.049194 637.093384,523.033264 
	C637.143555,523.730896 638.334106,524.346619 639.000000,525.000000 
z"/>
<path fill="#000000" opacity="1.000000" stroke="none" 
	d="
M639.000000,524.531372 
	C638.334106,524.346619 637.143555,523.730896 637.093384,523.033264 
	C636.878845,520.049194 637.417114,516.970032 636.920166,514.055237 
	C635.553833,506.040924 634.246216,497.899078 633.239807,489.963470 
	C632.431213,483.587769 629.062256,478.256683 628.694275,471.835083 
	C628.389648,466.518707 625.348328,461.377014 623.645386,456.117188 
	C622.329224,452.052094 621.254333,447.909454 619.984619,443.828552 
	C619.055359,440.841705 618.229797,437.784454 616.914612,434.965454 
	C615.226807,431.347717 612.907532,428.024994 611.213013,424.409851 
	C609.864807,421.533600 609.336853,418.262848 607.913635,415.434509 
	C606.355896,412.338684 604.183411,409.552887 602.294983,406.621552 
	C602.137329,406.376801 601.981384,406.030487 602.029053,405.768646 
	C603.147156,399.636322 595.377380,397.788574 595.439026,391.553101 
	C595.468445,388.575256 591.128723,385.678772 589.109863,382.526459 
	C586.212463,378.002563 583.744141,373.204102 580.852905,368.675964 
	C579.674622,366.830688 577.725952,365.494812 576.384521,363.731781 
	C574.772522,361.613251 573.429810,359.289276 571.981445,357.047211 
	C571.720398,356.643097 571.592712,356.125244 571.266724,355.794952 
	C567.975220,352.460297 564.143433,349.517700 561.466248,345.752014 
	C557.685608,340.434021 552.628662,336.485382 548.254089,331.826813 
	C543.466370,326.728180 538.175415,322.094513 533.490417,316.908875 
	C528.416870,311.293182 522.229736,307.227539 516.111206,302.977905 
	C510.419403,299.024536 504.949036,294.753723 499.293152,290.746887 
	C496.384064,288.685974 493.161194,287.060516 490.299805,284.941650 
	C486.713684,282.286102 483.361847,279.315186 479.881866,276.514008 
	C479.527283,276.228577 478.978882,276.193817 478.535126,276.007690 
	C475.636322,274.791779 472.659424,273.727112 469.867371,272.300995 
	C466.744049,270.705658 463.740112,268.857666 460.776062,266.975037 
	C458.049042,265.243011 455.467621,263.283539 452.777374,261.491333 
	C450.793365,260.169617 447.916077,261.951874 446.075562,258.403717 
	C444.975403,256.282837 440.061188,256.351501 437.113312,254.917969 
	C434.224182,253.512970 431.656982,251.447418 428.941193,249.683014 
	C428.551697,249.429962 428.144379,249.132629 427.705933,249.037689 
	C423.365112,248.097610 419.611816,246.393448 416.191284,243.245667 
	C414.193176,241.406891 410.545074,241.479523 407.813965,240.290833 
	C403.785675,238.537521 400.009521,236.191788 395.951111,234.523849 
	C390.160706,232.144104 383.881012,230.756287 378.440582,227.789169 
	C374.425995,225.599701 370.418091,223.798843 366.118286,222.389023 
	C359.843475,220.331619 354.309113,216.663712 347.941681,214.491379 
	C342.243408,212.547333 336.706573,209.621201 330.767487,207.844147 
	C327.154083,206.762970 323.615173,205.288208 320.238770,203.598663 
	C316.609863,201.782730 313.239166,199.456650 309.687317,197.475952 
	C308.929321,197.053238 307.850983,197.250046 306.965790,197.000046 
	C305.602814,196.615097 304.257019,196.145096 302.945770,195.608887 
	C301.816223,195.146973 300.764252,194.498169 299.643768,194.010712 
	C297.899475,193.251877 294.322052,195.849960 294.675201,191.273773 
	C293.693695,191.198532 292.704926,191.174240 291.732544,191.035187 
	C290.516388,190.861267 289.247894,190.762527 288.120880,190.325089 
	C286.496490,189.694595 285.036560,188.625748 283.399261,188.047546 
	C281.880035,187.511047 279.114716,189.007996 279.635468,185.457718 
	C279.645752,185.387589 278.572845,185.088745 277.991058,185.023376 
	C277.512878,184.969635 276.930725,185.296326 276.536285,185.126160 
	C272.536316,183.400513 268.562347,181.614105 264.596191,179.811554 
	C264.415253,179.729309 264.424225,179.146957 264.266754,179.107300 
	C260.920746,178.264511 257.303162,177.999802 254.275208,176.522461 
	C250.589905,174.724380 245.891434,174.439590 243.517502,170.261734 
	C243.325790,169.924347 242.251938,169.944153 241.623062,170.036545 
	C240.875870,170.146332 239.560394,170.799698 239.527466,170.729767 
	C237.333252,166.067978 230.549179,169.386505 228.593491,164.430847 
	C228.548386,164.316559 228.480499,164.151657 228.388885,164.123947 
	C224.918427,163.074341 220.882019,162.811340 218.114929,160.800552 
	C214.797775,158.390030 209.888794,159.603607 207.583710,155.573044 
	C207.464874,155.365250 207.249420,155.100159 207.047501,155.069611 
	C204.733368,154.719574 201.526535,156.168762 201.117325,152.060211 
	C196.675873,153.891724 194.052399,149.469666 190.230423,148.773087 
	C187.438309,148.264221 185.022171,145.675354 182.451614,143.993546 
	C182.182953,143.817780 182.047897,143.361877 181.776199,143.278137 
	C178.147491,142.159653 174.467041,141.195969 170.879868,139.960373 
	C168.347595,139.088150 165.156586,138.505539 163.634628,136.659851 
	C160.435898,132.780731 154.405304,134.105896 151.744675,129.126511 
	C150.701340,127.173889 146.877625,127.429497 144.520844,125.453270 
	C142.124619,123.443985 138.280930,123.239670 135.209839,121.921661 
	C133.778809,121.307510 132.731277,119.851242 131.412247,118.914146 
	C128.500748,116.845688 125.562531,114.809952 122.564377,112.870377 
	C121.053200,111.892769 119.324158,111.253601 117.804550,110.287003 
	C114.369583,108.102104 109.538330,107.911873 107.772011,103.326355 
	C104.025116,106.359230 104.421638,97.849319 100.526909,100.626091 
	C100.372765,100.735992 98.541321,98.048164 97.209900,97.033157 
	C92.735802,93.622330 88.177925,90.316101 83.564026,87.096046 
	C81.022171,85.322090 78.019661,84.122124 75.727974,82.094666 
	C71.628723,78.468040 68.556084,72.857948 63.875473,70.911118 
	C57.414757,68.223869 53.998352,62.910961 49.388161,58.684418 
	C46.079475,55.651070 43.742241,51.553070 40.998711,47.909637 
	C37.977158,43.896976 34.964321,39.877365 31.988026,35.831108 
	C28.069599,30.504026 23.792494,25.382919 20.446924,19.714470 
	C18.505665,16.425371 18.266970,12.171734 16.921843,8.475990 
	C16.054493,6.092944 14.570230,3.934433 13.681225,1.337646 
	C222.254028,1.000000 430.508057,1.000000 639.000000,1.000000 
	C639.000000,175.354156 639.000000,349.708405 639.000000,524.531372 
z"/>
<path fill="#000000" opacity="1.000000" stroke="none" 
	d="
M2.500000,1.000000 
	C3.000000,28.995478 2.956999,56.991165 3.094487,84.985970 
	C3.103888,86.900169 4.555960,88.779373 5.167474,90.728073 
	C5.594887,92.090103 5.951161,93.541023 5.963963,94.955635 
	C6.037841,103.119186 5.892123,111.286591 6.106451,119.445190 
	C6.142078,120.801384 7.655053,122.084473 8.344043,123.471527 
	C8.716847,124.222061 8.959883,125.118561 8.971617,125.953278 
	C9.032500,130.284454 8.778696,134.631821 9.068230,138.944412 
	C9.311006,142.560532 8.446841,145.950699 11.364449,149.769836 
	C13.556089,152.638672 11.874024,158.427505 12.020615,162.913010 
	C12.105415,165.507797 11.119851,168.312454 14.399768,170.202148 
	C15.296822,170.718964 14.934828,173.588348 14.978464,175.382309 
	C15.055422,178.546173 14.878295,181.719849 15.050080,184.876221 
	C15.139292,186.515381 13.757712,189.193634 17.346178,189.182510 
	C17.561331,189.181839 17.942801,190.895569 17.969786,191.819626 
	C18.052441,194.649704 17.614285,197.551971 18.100321,200.298462 
	C18.672283,203.530502 20.428289,206.568207 20.885597,209.801254 
	C21.394066,213.395996 19.491247,218.685715 21.327803,220.471558 
	C25.883865,224.901886 23.040344,229.733154 24.005066,234.218491 
	C24.201609,235.132278 24.455175,236.819595 24.691727,236.821243 
	C28.294744,236.846359 26.641855,239.543701 26.989769,241.161133 
	C27.753119,244.709915 25.032736,249.081909 29.749735,251.803696 
	C30.435720,252.199509 29.726614,254.682312 30.046749,256.113556 
	C30.666395,258.883911 27.905258,262.717255 32.636185,264.363251 
	C33.133141,264.536163 32.727737,266.859131 33.034485,268.112793 
	C33.709679,270.872223 30.896072,274.716125 35.633625,276.361267 
	C36.130630,276.533875 35.725872,278.856750 36.034683,280.109222 
	C36.714535,282.866486 33.854507,286.812103 38.678429,288.218475 
	C38.783272,288.249084 38.871662,288.474457 38.896568,288.621033 
	C39.936611,294.742126 39.997055,301.267273 42.313976,306.857391 
	C44.112976,311.197876 43.783882,316.059387 45.807487,319.556885 
	C47.072224,321.742767 47.603863,323.595215 48.057163,325.842468 
	C48.303158,327.061920 49.278141,328.117401 49.663044,329.329773 
	C50.230927,331.118530 50.510338,332.996552 51.010635,334.809509 
	C52.394066,339.822754 52.901295,345.179474 56.590248,349.307617 
	C56.700649,349.431152 56.899307,349.617523 56.867298,349.706299 
	C55.119156,354.554443 59.601990,357.811218 60.044529,362.119202 
	C60.240757,364.029449 58.519958,367.045990 62.502850,367.295563 
	C62.703831,367.308136 62.938339,368.437134 62.979931,369.058197 
	C63.167854,371.864563 61.842674,375.170166 65.840157,376.656799 
	C66.241669,376.806122 65.877563,378.602875 66.174423,379.538025 
	C66.660469,381.069214 67.367554,382.534729 68.049538,383.996124 
	C68.225105,384.372345 68.840576,384.580292 68.939377,384.949677 
	C69.995972,388.899994 70.703148,392.970093 72.080093,396.801056 
	C73.470497,400.669464 75.502220,404.307983 77.269684,408.039337 
	C77.461578,408.444427 77.874275,408.764282 77.997971,409.179321 
	C79.023628,412.620728 79.987869,416.080475 81.010902,419.522705 
	C81.321838,420.568909 81.701294,421.603363 82.147667,422.599152 
	C83.742310,426.156647 85.278664,429.745880 87.032059,433.224823 
	C88.421494,435.981598 90.101959,438.591309 91.640518,441.273590 
	C91.958176,441.827454 92.368790,442.385071 92.483910,442.989136 
	C93.507004,448.357483 96.135391,452.927643 99.037048,457.488922 
	C101.492470,461.348785 103.379288,465.600677 105.234505,469.804077 
	C107.379868,474.664825 109.002632,479.762451 111.261726,484.564606 
	C112.707825,487.638519 114.982986,490.311707 116.727173,493.258820 
	C118.901093,496.932068 120.871368,500.725250 123.003746,504.423859 
	C124.855858,507.636444 126.907059,510.736908 128.688461,513.986572 
	C129.954453,516.296021 130.645309,518.949646 132.075363,521.133850 
	C134.811188,525.312561 138.113419,529.126587 140.763962,533.353210 
	C143.319595,537.428467 145.257614,541.886230 147.661819,546.063782 
	C148.472229,547.471985 150.001846,548.445740 150.990234,549.776001 
	C153.496277,553.148682 155.945374,556.567871 158.301193,560.047058 
	C161.951416,565.437805 165.504990,570.893982 169.099854,576.322266 
	C169.279160,576.593018 169.435333,576.884155 169.645706,577.128418 
	C176.031891,584.544189 182.506348,591.886047 188.779037,599.396545 
	C191.877335,603.106201 194.209381,607.513306 197.567993,610.938171 
	C212.974731,626.648499 228.521942,642.225220 244.250671,657.612793 
	C248.318665,661.592529 253.273651,664.655212 257.736115,668.244934 
	C262.957214,672.445007 267.908661,677.001221 273.301025,680.961792 
	C279.251892,685.332764 285.646301,689.094788 291.699860,693.332886 
	C295.317078,695.865295 298.558228,698.931824 302.149933,701.504883 
	C304.060852,702.873840 306.351868,703.716187 308.483124,704.772461 
	C310.751373,705.896545 313.672943,706.446838 315.179352,708.211975 
	C318.529633,712.137634 324.706268,711.339294 327.467957,716.444641 
	C328.331329,718.040710 332.090729,717.058472 334.329193,719.718872 
	C336.202271,721.945068 340.801483,721.677673 343.912994,723.119812 
	C346.821869,724.467957 349.312683,726.692749 352.079956,728.380127 
	C354.234406,729.693848 356.443573,731.001038 358.785431,731.903931 
	C361.995758,733.141602 365.460968,733.741760 368.623108,735.074768 
	C372.646545,736.770935 376.327515,740.016479 380.431335,740.576233 
	C384.492065,741.130127 386.877411,746.049438 391.453552,744.137085 
	C391.727173,744.022766 392.131653,743.996277 392.393524,744.112671 
	C396.795532,746.070251 401.080933,748.347168 405.603058,749.963013 
	C411.104889,751.928772 416.826660,753.270020 422.410248,755.018738 
	C427.057037,756.474060 431.568512,758.413025 436.272888,759.619446 
	C441.804932,761.038208 447.453430,762.069214 453.100311,762.957703 
	C460.586517,764.135559 468.590668,763.809143 475.448669,766.490967 
	C479.279785,767.989197 482.826904,768.355896 486.561768,769.190552 
	C489.032715,769.742615 491.752411,771.238770 491.133636,775.251404 
	C490.610779,778.642029 491.523071,782.233459 491.198822,785.679382 
	C490.427826,793.873474 489.285828,802.032349 488.329620,810.209656 
	C488.138062,811.847961 488.218903,813.521423 487.981201,815.150513 
	C486.680298,824.065796 485.363220,832.979614 483.909698,841.870667 
	C483.767059,842.743225 482.659729,843.458130 482.000092,844.623108 
	C321.666656,845.000000 161.333328,845.000000 1.000000,845.000000 
	C1.000000,565.166687 0.998439,285.333344 1.041260,5.500006 
	C1.041489,3.999955 1.666667,2.500000 2.500000,1.000000 
z"/>
<path fill="#000000" opacity="1.000000" stroke="none" 
	d="
M512.468628,845.000000 
	C512.000000,837.835022 511.793701,830.661743 512.084167,823.508545 
	C512.237000,819.745667 510.147278,815.319214 514.717712,812.380798 
	C515.367126,811.963257 514.989380,809.859924 514.991150,808.536743 
	C515.006531,797.039490 514.879395,785.539795 515.111084,774.047241 
	C515.152893,771.975220 516.717468,769.957642 517.435425,767.865662 
	C517.791748,766.827454 517.963318,765.679077 517.975647,764.577820 
	C518.031128,759.594910 517.801758,754.600403 518.067993,749.631165 
	C518.253296,746.172180 516.322021,742.087219 520.681152,739.492371 
	C521.321106,739.111389 521.010803,736.979248 520.985962,735.660217 
	C520.721130,721.592896 520.284058,707.526978 520.196228,693.458862 
	C520.150940,686.216309 521.043030,678.961914 520.866821,671.728577 
	C520.772400,667.852722 521.943176,664.077087 518.561768,659.883057 
	C516.151245,656.893188 517.969116,650.579590 517.688477,645.761597 
	C517.440918,641.512390 520.250366,636.766785 515.271912,633.137634 
	C514.290833,632.422424 515.192383,629.320068 514.958191,627.350464 
	C514.029114,619.536682 515.124817,610.418396 511.358276,604.325317 
	C508.041840,598.960327 512.378357,592.048706 506.213287,588.433167 
	C505.883789,588.239990 506.096222,587.185181 505.987091,586.543213 
	C505.457794,583.430115 503.782562,579.950073 503.601471,577.619141 
	C503.205597,572.524963 500.617920,568.364075 499.794342,563.585022 
	C499.099792,559.554749 496.620422,555.830139 494.901581,551.983337 
	C494.795959,551.747070 494.193756,551.556152 494.221588,551.462158 
	C495.445312,547.325806 491.438019,545.029114 490.725494,541.508972 
	C490.057404,538.208313 489.109497,534.665527 487.200531,532.008118 
	C485.632538,529.825378 484.879272,528.125305 484.750549,525.415466 
	C484.659973,523.508606 482.195374,521.782959 481.000488,519.847046 
	C477.753754,514.586853 474.475555,509.336731 471.492401,503.926788 
	C469.681854,500.643341 468.515930,497.010132 466.824036,493.653168 
	C465.965332,491.949280 464.661194,490.444061 463.423218,488.961914 
	C459.650299,484.444855 455.356476,480.283417 452.135101,475.408875 
	C449.287903,471.100464 445.400177,467.757629 442.601715,463.381287 
	C439.729584,458.889648 435.528351,455.225861 431.782440,451.320984 
	C427.862061,447.234283 423.791473,443.291626 419.786194,439.286377 
	C415.662415,435.162567 411.540680,431.036682 407.413574,426.916168 
	C400.799591,420.312805 394.979645,412.500519 387.331055,407.468811 
	C380.336517,402.867401 374.941345,397.035400 368.926117,391.611481 
	C365.894714,388.878052 361.738373,387.433319 358.453308,384.930084 
	C353.841766,381.415985 349.702454,377.282227 345.090973,373.768036 
	C342.887756,372.089050 339.871185,371.506104 337.563690,369.928436 
	C334.056335,367.530457 330.930511,364.580566 327.476074,362.096680 
	C325.452911,360.641998 323.052094,359.725311 320.915771,358.412689 
	C314.234406,354.307404 307.588989,350.143372 300.947296,345.973969 
	C296.225220,343.009644 291.456055,340.111053 286.847046,336.978394 
	C282.404114,333.958649 278.536987,329.275024 273.686127,327.899628 
	C268.741211,326.497528 265.817871,322.712067 261.462952,321.006622 
	C261.462952,321.006622 254.499435,316.012268 254.499435,316.012268 
	C252.017227,314.829407 249.449661,313.794434 247.075470,312.424347 
	C244.406311,310.884003 241.549866,309.826477 239.364883,307.203766 
	C237.750443,305.265900 234.617096,304.586761 232.144684,303.379120 
	C231.844894,303.232697 231.168793,303.363525 231.134491,303.238068 
	C229.860596,298.578186 224.892853,299.835693 222.123413,297.596832 
	C221.758499,297.301819 221.184891,297.265839 220.817978,296.972321 
	C215.066101,292.371124 209.444305,287.596649 203.536697,283.206360 
	C201.315170,281.555420 198.443085,280.777344 195.858688,279.621216 
	C195.612823,279.511261 195.071518,279.587036 195.056198,279.504425 
	C194.118958,274.451965 188.143326,275.617371 185.780441,271.906494 
	C184.334747,269.636078 181.198593,268.269989 178.590424,266.957001 
	C175.568283,265.435638 175.433853,260.388092 170.614243,260.849213 
	C169.763062,260.930664 168.623657,257.737122 167.563614,256.090576 
	C167.310394,255.697281 166.843628,255.168915 166.471252,255.165833 
	C161.121994,255.121796 159.556366,250.030701 156.091736,247.494049 
	C154.273087,246.162491 152.202103,245.169388 150.419327,243.797043 
	C148.950821,242.666626 147.594208,241.315964 146.452591,239.856003 
	C145.213699,238.271622 144.545609,236.187622 143.161972,234.780243 
	C139.801529,231.362122 135.492844,228.680542 132.820175,224.831497 
	C129.487213,220.031525 123.682167,217.347473 121.597534,211.903397 
	C120.146843,208.114868 116.841850,206.120392 115.103241,202.900681 
	C114.123306,201.085968 114.348885,198.620270 114.031410,196.447830 
	C114.503349,196.326096 114.975288,196.204361 115.447220,196.082626 
	C118.041397,198.634506 120.520264,201.317932 123.252289,203.712540 
	C130.244308,209.840912 137.282669,215.920914 144.445221,221.847794 
	C146.892899,223.873245 149.731934,225.439941 152.458221,227.108307 
	C153.747513,227.897293 153.391830,229.805878 156.478683,229.830093 
	C159.607895,229.854630 162.712280,234.607178 165.796173,237.324524 
	C166.317291,237.783707 166.580673,238.618973 167.151642,238.907806 
	C167.514725,239.091492 168.624649,238.297485 168.723312,238.433258 
	C172.526260,243.667999 179.487000,245.116989 183.290176,249.508621 
	C186.581177,253.308838 191.220444,253.551880 194.377975,256.880188 
	C197.594498,260.270660 202.707260,261.261292 205.906967,265.129608 
	C207.422470,266.961792 210.207977,267.752106 212.434204,268.985382 
	C214.651627,270.213745 216.857941,271.468842 219.127869,272.593658 
	C220.933868,273.488556 222.828384,274.204834 224.683594,275.000458 
	C224.683594,275.000458 232.463135,279.910858 232.463135,279.910858 
	C232.830734,280.228302 233.147995,280.699371 233.573883,280.838867 
	C236.909576,281.931427 240.437134,282.597839 243.582016,284.081421 
	C251.089813,287.623260 258.121124,292.546112 265.950531,294.875977 
	C269.768311,296.012054 272.172394,300.718353 276.885223,299.136658 
	C277.062714,299.077118 277.584625,300.810364 278.121368,300.931549 
	C281.865967,301.776947 284.363708,305.772552 288.707794,305.129578 
	C288.881653,305.103821 289.079468,306.574066 289.512085,306.753235 
	C293.154755,308.261597 296.873749,309.584869 300.527710,311.067383 
	C301.845184,311.601868 303.041046,312.431946 304.304535,313.104340 
	C308.012421,315.077728 311.763062,316.974152 315.427368,319.025116 
	C318.840271,320.935394 322.108917,323.106201 325.542450,324.976105 
	C328.850830,326.777832 333.745087,327.501373 335.311249,330.216461 
	C337.393951,333.827057 343.425873,330.277008 343.287903,335.744843 
	C347.176880,333.936005 347.633514,339.336884 351.488251,339.465668 
	C355.051544,339.584656 358.505127,343.516602 361.963898,345.833679 
	C362.743073,346.355682 370.119812,349.801666 370.258545,350.234650 
	C371.247803,353.321899 375.539612,353.525452 376.058319,355.086670 
	C377.094879,358.206696 379.561676,356.187408 379.605988,356.421631 
	C380.231140,359.726501 384.562836,359.458191 385.064575,361.032928 
	C386.024628,364.046051 387.297913,362.616058 388.725037,362.367615 
	C389.210327,365.630280 392.261963,365.614471 394.336761,366.975861 
	C399.686005,370.485809 403.607056,375.922272 409.988495,378.191833 
	C411.520935,378.736847 412.067200,381.622223 413.533905,382.891937 
	C415.437897,384.540222 417.843475,385.596893 419.970337,387.003143 
	C422.673767,388.790558 425.593567,390.375000 427.932831,392.566956 
	C437.302338,401.346619 446.553375,410.256195 455.714813,419.253571 
	C465.343872,428.710236 475.768127,437.589020 483.960571,448.178162 
	C488.007782,453.409393 493.593384,457.629700 496.363342,463.354584 
	C498.859772,468.514221 503.596649,471.388184 505.995880,475.937683 
	C507.750000,479.263824 510.267517,481.775818 512.101501,484.811371 
	C517.701050,494.079773 522.707947,503.704254 528.064514,513.122437 
	C530.736877,517.821167 533.922363,522.241455 536.394226,527.036011 
	C538.037659,530.223755 537.826294,535.342529 540.222412,536.953552 
	C544.501648,539.830566 540.228210,546.316956 545.896545,547.768188 
	C546.082336,547.815796 545.823547,549.069214 546.026001,549.675720 
	C546.825195,552.069702 544.261353,555.000610 548.680969,557.123474 
	C550.943665,558.210327 550.819458,564.013000 552.051331,567.588806 
	C552.870178,569.965576 549.476562,574.130981 554.912354,574.624878 
	C554.946106,574.627930 554.945740,574.936829 554.971924,575.101196 
	C555.980530,581.420593 556.951599,587.746399 558.025635,594.054688 
	C558.315918,595.759521 556.698486,598.636047 560.483948,598.555237 
	C560.641602,598.551880 560.962036,599.860291 560.976135,600.562256 
	C561.033264,603.393738 560.721985,606.264221 561.094360,609.047058 
	C561.357666,611.015198 562.578003,612.839966 563.223877,614.777771 
	C563.624878,615.980774 563.946838,617.272522 563.965820,618.529480 
	C564.046204,623.860413 563.920471,629.194763 564.033020,634.524536 
	C564.090820,637.260620 562.863647,640.453247 566.535217,642.206360 
	C567.087524,642.470032 566.979736,644.357666 566.982239,645.494568 
	C567.010254,658.158142 567.067566,670.822693 566.911438,683.484375 
	C566.892639,685.006592 565.605530,686.492371 565.010254,688.035156 
	C564.583679,689.140625 564.063293,690.308716 564.044922,691.456238 
	C563.948914,697.453247 564.137512,703.457336 563.931824,709.448853 
	C563.850464,711.818604 565.653137,715.173462 561.444031,716.135864 
	C561.258118,716.178406 561.127258,716.663086 561.058594,716.961975 
	C560.985291,717.280884 561.004089,717.623779 561.003723,717.956177 
	C561.000061,721.455322 561.328064,724.995605 560.895996,728.440613 
	C560.552124,731.181763 559.281128,733.806641 558.405151,736.534546 
	C559.602356,736.534546 561.079956,736.534546 563.000000,736.534546 
	C563.000000,735.061646 562.566833,733.296143 563.082397,731.874817 
	C564.547668,727.834717 566.392944,723.932007 568.117737,719.987854 
	C568.223083,719.746887 568.789490,719.616943 568.790100,719.434204 
	C568.799866,716.498413 571.019897,714.089539 571.521729,711.898376 
	C572.724243,706.648315 576.594910,702.530640 577.455078,698.023315 
	C578.546265,692.305969 583.122925,688.872864 584.112122,683.426208 
	C584.500488,681.288269 587.201599,679.586670 588.794678,677.641418 
	C589.287048,677.040161 589.988831,676.253235 589.928040,675.614685 
	C589.557495,671.719971 592.561401,670.465271 594.874268,668.384460 
	C596.692749,666.748352 597.688782,664.170593 598.958496,661.958557 
	C600.937866,658.510376 604.374329,656.326416 606.697205,653.394470 
	C610.289551,648.860229 615.553101,645.451904 617.101318,639.302795 
	C617.590210,637.361206 619.144409,635.712219 620.009644,633.836426 
	C622.703186,627.996826 626.544495,622.326965 627.601013,616.188599 
	C628.764465,609.429077 632.849487,603.521667 632.302307,596.221802 
	C632.042236,592.751953 634.553040,589.086792 635.736755,585.486511 
	C635.985962,584.728455 635.951050,583.868530 635.994995,583.052795 
	C636.338013,576.677490 636.626648,570.298767 637.051453,563.929016 
	C637.109314,563.061523 637.827881,562.237976 638.620239,561.697021 
	C639.000000,656.232605 639.000000,750.465149 639.000000,845.000000 
	C596.979614,845.000000 554.958435,845.000000 512.468628,845.000000 
z"/>
</svg>