<svg version="1.1" id="Layer_1" xmlns="http://www.w3.org/2000/svg" xmlns:xlink="http://www.w3.org/1999/xlink" x="0px" y="0px"
	 width="100%" viewBox="0 0 1619 1649" enable-background="new 0 0 1619 1649" xml:space="preserve">
<path fill="#FFFFFF" opacity="1.000000" stroke="none" 
	d="
M851.000000,1650.000000 
	C568.833435,1650.000000 287.166840,1649.991333 5.500286,1650.093262 
	C1.751720,1650.094604 0.906485,1649.249878 0.907153,1645.500244 
	C1.004490,1098.833740 1.004475,552.167236 0.907334,5.500760 
	C0.906668,1.753554 1.748387,0.906371 5.499270,0.907052 
	C542.165771,1.004588 1078.832275,1.004564 1615.498779,0.907410 
	C1619.244751,0.906732 1620.093506,1.746719 1620.092896,5.498788 
	C1619.995361,552.165283 1619.995483,1098.831787 1620.092529,1645.498291 
	C1620.093140,1649.243164 1619.255127,1650.095215 1615.501709,1650.093628 
	C1360.834473,1649.990356 1106.167236,1650.000000 851.000000,1650.000000 
z"/>
<path fill="#241916" opacity="1.000000" stroke="none" 
	d="
M1272.858276,1192.801758 
	C1240.410889,1205.398071 1206.865845,1212.320190 1173.221680,1218.612061 
	C1156.528320,1221.734009 1140.328857,1217.829346 1125.208374,1210.570557 
	C1033.082886,1166.344604 936.744080,1133.078003 840.314026,1099.901367 
	C795.887878,1084.616699 750.450989,1073.617554 704.829407,1062.998169 
	C682.985413,1057.913696 661.956360,1049.854614 640.092041,1044.822388 
	C604.596741,1036.652954 569.054016,1028.692261 532.821716,1024.405273 
	C502.589020,1020.828064 472.372345,1021.094238 442.164703,1024.916260 
	C439.266724,1025.282837 439.287933,1026.857544 438.996643,1028.915405 
	C437.155212,1041.923950 435.984650,1055.036865 433.245911,1067.907593 
	C426.917023,1097.650391 411.439117,1112.944458 381.621246,1118.582397 
	C361.474274,1122.391846 341.092133,1124.180054 320.602936,1124.760620 
	C319.671753,1124.787109 318.739227,1124.764160 316.982269,1124.764160 
	C319.405151,1121.642212 321.995575,1119.873779 324.558289,1118.203247 
	C331.800354,1113.482178 339.158936,1108.940063 346.466156,1104.318970 
	C357.127228,1097.576782 364.621552,1088.517456 368.212006,1076.174927 
	C372.840149,1060.265381 377.935974,1044.491699 382.895325,1028.449219 
	C337.764709,1031.790771 295.529724,1040.643921 259.010559,1069.436279 
	C226.305923,1095.221191 192.802979,1119.908569 163.404770,1149.602661 
	C152.002228,1161.119873 138.404633,1167.137207 121.879524,1164.210205 
	C111.322845,1162.340088 105.963913,1154.765381 107.458412,1143.969849 
	C110.341576,1123.143433 119.780235,1105.335449 134.079498,1090.336548 
	C153.444687,1070.023560 175.576614,1052.871826 198.602112,1036.922852 
	C236.869064,1010.416687 278.320801,991.197083 324.328461,982.447083 
	C340.564056,979.359314 356.992889,978.359985 373.401917,976.997314 
	C384.626007,976.065247 388.859955,972.688232 391.268951,961.704834 
	C395.119232,944.150574 397.031616,926.259521 399.838165,908.523682 
	C405.063568,875.502441 409.903473,842.419922 415.194244,809.409424 
	C418.418091,789.294861 430.606964,780.418396 454.030762,785.151978 
	C466.350525,787.641602 471.578644,797.860779 474.054932,809.475281 
	C476.531494,821.091064 473.504517,832.344299 471.650543,843.606262 
	C465.330811,881.995361 458.704376,920.333923 452.227631,958.697266 
	C451.980103,960.163513 452.134277,961.692871 451.989410,963.181946 
	C451.517059,968.036316 453.628326,969.561523 458.526520,970.043884 
	C488.005127,972.946716 517.444763,976.247559 546.893250,979.453491 
	C575.350159,982.551636 603.806030,985.660645 632.249878,988.875488 
	C635.070007,989.194214 636.020447,987.503235 637.239197,985.698914 
	C652.744934,962.742859 663.356384,937.551270 670.908203,911.040039 
	C674.998840,896.679626 679.520996,882.357544 680.001160,867.223145 
	C680.659668,846.466553 671.481689,830.741699 655.085510,818.800598 
	C646.743469,812.725220 638.275940,806.827332 630.363525,800.180481 
	C604.572693,778.514343 598.506775,758.184937 608.401306,726.098389 
	C610.748413,718.487305 613.300232,710.938782 615.802307,703.376160 
	C616.700012,700.662842 616.430969,699.433228 612.986694,698.884094 
	C575.558105,692.917175 538.038696,687.413757 501.244537,678.023865 
	C472.276855,670.631287 443.206390,663.708862 416.461029,649.554565 
	C384.692383,632.741699 356.985931,610.563538 330.874756,586.178284 
	C326.006561,581.631836 321.263336,576.951721 316.440552,572.356323 
	C313.010406,569.087830 310.460602,565.217224 308.779480,560.824402 
	C305.093170,551.191772 300.248779,542.116455 295.737610,532.869080 
	C285.523163,511.930573 283.541809,490.286591 290.992645,467.980774 
	C293.365265,460.877686 297.933044,455.610016 303.952179,451.382996 
	C307.442017,448.932190 310.492157,449.083801 313.776978,451.956757 
	C318.728333,456.287201 322.798737,461.294250 326.117371,466.908508 
	C329.920288,473.342102 333.595947,479.853577 337.208221,486.396790 
	C358.145599,524.322754 389.520630,549.812927 430.551910,562.883301 
	C457.002716,571.309082 483.531158,579.640686 508.572998,591.475891 
	C523.375183,598.471680 537.846497,601.098450 553.969177,600.652954 
	C575.264893,600.064514 596.435730,603.550659 617.584839,606.038940 
	C642.802795,609.006042 667.984680,609.918579 693.280334,606.871704 
	C707.827087,605.119446 722.721375,607.859619 737.116577,604.844055 
	C761.694458,599.695435 787.217407,600.762695 811.374329,592.988525 
	C829.403381,587.186462 846.799255,579.699219 864.674927,573.489258 
	C878.382812,568.727173 892.807739,566.905518 906.604797,562.597412 
	C938.944824,552.499146 965.088074,533.777527 985.353699,506.600769 
	C1001.474243,484.982666 1018.136597,463.775208 1034.229492,442.127777 
	C1049.506104,421.578369 1061.825806,399.669769 1066.701538,374.412781 
	C1069.062988,362.180206 1074.862061,356.357849 1087.264404,354.365417 
	C1100.469482,352.244080 1113.392090,348.796204 1126.646729,352.995850 
	C1137.572144,356.457550 1146.817871,362.513367 1152.906860,372.489136 
	C1159.216187,382.825745 1156.760254,394.590851 1145.451538,398.132050 
	C1124.455200,404.706818 1112.773682,420.396057 1101.282715,437.183624 
	C1082.320679,464.886200 1067.469971,494.336945 1060.504028,527.428101 
	C1057.692627,540.782776 1051.876221,552.898132 1044.264404,564.129761 
	C1032.150024,582.005432 1017.697083,597.902893 1001.691162,612.303162 
	C981.916992,630.093567 957.772278,638.691101 932.179199,643.880798 
	C913.223877,647.724426 894.858215,653.519836 877.234619,661.409546 
	C849.403198,673.869141 820.147522,681.142883 790.220642,686.005737 
	C764.282837,690.220520 738.254700,693.880005 712.320496,698.115967 
	C700.840515,699.991028 691.084961,705.384277 685.405151,715.968384 
	C678.025208,729.720520 671.523987,743.896973 666.746216,758.824524 
	C663.606018,768.635986 665.862183,776.645691 674.235168,782.547058 
	C688.366455,792.506897 701.823303,803.456970 716.913025,812.019104 
	C721.614502,814.686768 725.580994,817.886475 728.628174,822.530640 
	C739.099976,838.490662 754.479797,842.994019 772.560730,840.442871 
	C793.969116,837.422119 815.191895,833.229126 836.659180,830.529602 
	C862.920227,827.227295 889.236084,824.495178 915.579529,821.990356 
	C923.697632,821.218445 931.838623,820.666382 939.943115,819.776794 
	C961.140686,817.450073 980.786194,822.889343 999.955017,831.441895 
	C996.558594,838.183655 993.296692,844.913940 988.789551,850.932434 
	C985.163879,855.773865 980.454163,858.204895 974.251465,858.174011 
	C961.678589,858.111511 949.517944,854.976013 937.131775,853.538025 
	C908.910767,850.261780 880.694641,849.845520 852.418762,852.583191 
	C827.179138,855.026855 802.444946,860.027954 778.118591,867.113342 
	C775.572632,867.854858 773.054321,868.744568 770.609375,869.770752 
	C759.531799,874.420288 754.337524,881.556824 755.514099,893.434875 
	C757.459045,913.070374 751.693542,930.566650 742.381165,947.248352 
	C735.742554,959.140259 728.662292,970.785278 721.808289,982.557495 
	C719.464233,986.583801 717.355652,990.732605 716.019531,995.220825 
	C713.721985,1002.938293 715.682617,1007.474854 722.973633,1011.134705 
	C730.356384,1014.840576 738.411987,1016.382385 746.431641,1017.635498 
	C805.053894,1026.795166 861.971863,1042.683838 918.421692,1060.556030 
	C955.770203,1072.380737 992.502136,1086.185791 1030.616333,1095.564941 
	C1075.985229,1106.729492 1121.967041,1113.317749 1168.678589,1115.349121 
	C1202.355103,1116.813721 1235.875366,1114.146484 1269.465088,1113.166626 
	C1305.120117,1112.126343 1340.715942,1112.729248 1376.067871,1118.433228 
	C1389.079102,1120.532593 1402.329712,1119.484741 1415.427368,1120.670654 
	C1438.978638,1122.803467 1462.248535,1126.965210 1485.618530,1130.404297 
	C1490.554443,1131.130737 1495.447632,1132.236328 1500.404175,1132.696777 
	C1502.991943,1132.937256 1504.097046,1133.931519 1504.837524,1136.266357 
	C1508.549072,1147.970093 1512.267334,1159.675171 1516.277832,1171.277954 
	C1517.228760,1174.029175 1516.757935,1176.001709 1515.310303,1178.214600 
	C1509.716675,1186.764282 1501.037598,1189.446533 1491.672729,1189.973267 
	C1472.032593,1191.077515 1452.389893,1190.037476 1432.769531,1189.026245 
	C1402.194946,1187.450562 1371.630371,1185.686035 1341.058472,1184.056885 
	C1317.935547,1182.824463 1295.198730,1184.757568 1272.858276,1192.801758 
z"/>
<path fill="#241916" opacity="1.000000" stroke="none" 
	d="
M532.864380,423.190857 
	C526.836731,421.397308 522.055969,417.977417 516.852234,415.411743 
	C514.377258,414.191498 515.233521,412.585236 515.461365,410.859955 
	C519.908447,377.186615 530.754700,345.592072 546.949280,315.854919 
	C565.894714,281.066467 588.350952,248.719543 616.154663,220.361893 
	C654.182007,181.576904 700.374573,156.866486 752.687378,143.689575 
	C789.888000,134.319244 826.177124,137.222885 859.687256,157.392776 
	C892.528198,177.159897 911.777344,206.347336 918.123535,244.261551 
	C921.885986,266.739807 927.601013,288.771301 935.966675,310.042511 
	C947.393127,339.096466 943.912842,367.577820 933.636902,396.207703 
	C912.985107,453.746216 873.745911,494.275421 820.249451,522.055237 
	C809.640503,527.564331 798.727051,532.492859 788.175293,538.105225 
	C774.022156,545.633057 758.849609,547.247681 743.200439,547.023560 
	C698.209106,546.379150 656.113464,535.582703 617.462097,512.030823 
	C601.533875,502.325043 590.044189,488.554901 579.648804,473.463043 
	C581.380920,472.353149 582.302368,473.797485 583.307068,474.351166 
	C595.241638,480.928162 607.114624,487.604401 618.555298,495.036530 
	C634.036560,505.093414 651.510742,509.053436 669.551086,510.588501 
	C687.615051,512.125610 705.695312,513.493652 723.883118,513.055237 
	C771.656982,511.903412 809.807556,491.716827 838.870178,454.410095 
	C866.614868,418.795227 882.072815,378.053528 887.069702,333.217957 
	C890.358032,303.712646 889.479736,274.315521 884.149292,245.203857 
	C877.446228,208.596817 849.308167,181.540314 812.652954,175.002716 
	C784.147888,169.918716 756.819458,175.270844 729.605042,183.451050 
	C675.271606,199.782715 635.786499,234.826157 604.922119,281.022644 
	C592.719604,299.286896 581.590210,318.189819 571.503113,337.690308 
	C564.419373,351.384644 562.778870,365.732117 566.911743,380.769226 
	C569.136353,388.863251 569.309448,397.230103 567.911194,405.524384 
	C565.391357,420.472443 554.026184,427.857666 538.532654,424.741241 
	C536.747620,424.382202 535.010864,423.782806 532.864380,423.190857 
z"/>
<path fill="#241917" opacity="1.000000" stroke="none" 
	d="
M961.488037,1461.507324 
	C959.522888,1460.885864 957.920837,1460.440918 956.329529,1459.960693 
	C953.150757,1459.001587 949.887512,1457.036865 946.826965,1457.317627 
	C943.469116,1457.625488 943.616821,1462.197510 941.788696,1464.633057 
	C938.083984,1469.568848 930.852783,1470.723633 925.313904,1466.419678 
	C921.515869,1463.468262 917.416138,1460.947266 913.702454,1457.978394 
	C906.369263,1452.116455 903.442444,1443.716675 902.993286,1434.645020 
	C901.734070,1409.216064 900.964844,1383.767334 900.615723,1358.306152 
	C900.106812,1321.194702 902.980652,1284.209595 904.502319,1247.172363 
	C904.677795,1242.900879 906.796448,1241.653687 910.099792,1241.073975 
	C912.907654,1240.581055 915.692688,1240.901733 918.457153,1241.857056 
	C926.304871,1244.568848 933.994751,1247.578613 941.154175,1251.868408 
	C945.257324,1254.326904 947.516479,1257.711426 947.096619,1262.515991 
	C946.140930,1273.451416 945.168152,1284.387573 943.992676,1295.300903 
	C941.722717,1316.375488 942.827148,1337.555664 941.832886,1358.652710 
	C940.843506,1379.647217 941.866272,1400.535400 942.740601,1421.462769 
	C942.823425,1423.444824 942.613220,1425.446167 942.443604,1427.430542 
	C941.407593,1439.549072 950.646118,1447.826294 962.511414,1444.800903 
	C970.044373,1442.880249 977.543640,1440.571411 984.653687,1437.296631 
	C998.159729,1431.075928 1006.389832,1421.151855 1008.295410,1405.864136 
	C1010.181458,1390.732544 1010.592346,1376.038086 1002.987305,1362.175171 
	C999.064636,1355.024902 997.035767,1354.343262 990.036438,1358.387939 
	C982.936646,1362.490723 975.360168,1365.381714 967.520752,1367.605469 
	C960.877075,1369.489868 947.792358,1360.573364 946.920654,1353.711914 
	C946.501282,1350.410645 948.381958,1348.350464 950.943787,1346.854492 
	C967.295532,1337.304810 979.257996,1323.179688 990.177551,1308.235474 
	C997.797913,1297.806396 997.413574,1286.157715 991.914917,1274.673462 
	C989.640869,1269.923828 985.755493,1267.377441 980.478943,1267.060791 
	C972.549805,1266.584717 965.270447,1263.925781 957.995911,1260.929565 
	C954.538208,1259.505371 954.683228,1256.833008 954.076599,1254.207153 
	C953.378540,1251.185425 956.175415,1251.317505 957.668823,1250.360474 
	C962.260864,1247.417725 967.078308,1249.430786 971.773193,1249.975952 
	C984.987915,1251.510376 998.061096,1253.355957 1010.385254,1259.104980 
	C1027.011841,1266.860840 1035.921143,1293.459351 1031.848999,1307.374390 
	C1031.205811,1309.572021 1030.296143,1311.883057 1028.877930,1313.628418 
	C1023.793701,1319.885254 1020.443787,1327.137451 1016.468689,1334.041382 
	C1014.742676,1337.039062 1014.657471,1338.443970 1018.102295,1340.438965 
	C1032.436035,1348.740356 1042.005005,1360.845215 1045.598877,1377.266357 
	C1048.044678,1388.442139 1046.957642,1399.430908 1043.591797,1410.255981 
	C1041.174561,1418.029419 1038.009766,1425.520752 1034.719360,1432.953369 
	C1032.259399,1438.510498 1028.683716,1443.314941 1023.978882,1447.158569 
	C1013.959290,1455.343994 1002.291504,1460.621338 990.462402,1465.482300 
	C985.570435,1467.492676 980.350037,1467.029663 975.265015,1465.501953 
	C970.813232,1464.164551 966.327087,1462.941406 961.488037,1461.507324 
z"/>
<path fill="#241916" opacity="1.000000" stroke="none" 
	d="
M748.216797,253.146576 
	C757.052246,250.499847 764.387695,253.147171 771.841614,257.018768 
	C781.710083,262.144562 791.955444,266.532074 800.927307,273.262390 
	C819.123169,286.912201 825.091553,305.099426 815.480408,325.537506 
	C802.341187,353.477844 782.440979,375.669556 753.822510,388.871613 
	C739.276855,395.581696 725.919250,394.563416 713.033630,383.751831 
	C697.367065,370.606903 680.611145,358.768158 665.440796,344.988831 
	C663.716431,343.422516 662.021057,341.817444 660.399536,340.145691 
	C652.367615,331.865082 651.633484,323.647430 658.241455,314.130707 
	C663.791931,306.137024 671.366699,300.025452 678.132080,293.161102 
	C682.452271,288.777649 687.162598,284.658142 690.818359,279.763306 
	C701.222473,265.832642 715.496216,258.992615 732.057434,255.942688 
	C737.288391,254.979340 742.537537,254.115540 748.216797,253.146576 
z"/>
<path fill="#241916" opacity="1.000000" stroke="none" 
	d="
M249.327850,1519.704956 
	C238.750763,1515.198730 230.065445,1508.510498 221.682571,1501.381592 
	C220.789459,1500.622314 218.812119,1500.115723 219.853455,1498.428101 
	C220.716690,1497.029053 222.327347,1497.919189 223.524414,1498.238770 
	C236.834900,1501.791382 250.078720,1505.605835 263.438995,1508.956909 
	C279.352783,1512.948364 292.472351,1508.078125 302.048920,1494.908691 
	C320.514008,1469.516113 332.682648,1441.760498 333.267609,1409.703369 
	C333.969269,1371.250610 335.079376,1332.792114 333.534454,1294.349609 
	C332.593262,1270.929810 330.693695,1247.548828 329.247314,1224.149048 
	C329.083160,1221.493408 328.959473,1218.826660 329.010193,1216.168823 
	C329.065521,1213.269287 330.755554,1211.135010 333.539246,1211.138428 
	C342.659424,1211.149414 351.934448,1210.704956 360.416504,1215.028320 
	C370.659424,1220.249512 376.100708,1228.595825 376.112976,1240.216919 
	C376.140259,1266.039795 376.119049,1291.862549 376.122925,1317.685425 
	C376.124115,1325.719116 378.047119,1333.518066 379.044037,1341.430298 
	C380.807617,1355.426636 379.040894,1369.333130 377.917877,1383.253052 
	C376.098206,1405.808228 374.498077,1428.457275 369.926758,1450.609985 
	C363.684540,1480.859619 348.947632,1506.555054 324.064453,1525.473877 
	C307.704102,1537.912842 289.739716,1537.087158 271.583313,1529.431763 
	C264.238861,1526.335205 256.968353,1523.063477 249.327850,1519.704956 
z"/>
<path fill="#241A17" opacity="1.000000" stroke="none" 
	d="
M541.013428,1385.741699 
	C542.436035,1400.738770 546.570190,1414.521973 552.327209,1427.872803 
	C553.638916,1430.914795 555.038269,1433.963257 555.902039,1437.143311 
	C556.978821,1441.107300 555.198853,1443.303467 551.043640,1444.113403 
	C536.690735,1446.910767 513.815735,1434.957642 510.726929,1421.135132 
	C510.193970,1418.750244 508.985443,1416.516235 508.081482,1414.193237 
	C506.309753,1414.369507 505.781982,1415.743408 505.158783,1416.729126 
	C498.878540,1426.663208 489.752045,1433.718018 480.639008,1440.686279 
	C469.473083,1449.224365 456.339600,1450.426025 443.056000,1448.656372 
	C434.053772,1447.457153 424.017792,1434.051514 424.007812,1424.819702 
	C423.978394,1397.656006 424.013458,1370.492310 423.982178,1343.328613 
	C423.976624,1338.510742 424.012207,1333.714233 423.343262,1328.883667 
	C422.385406,1321.967529 426.753418,1318.259277 433.730652,1319.510010 
	C441.412231,1320.886963 444.966339,1324.321045 446.459442,1331.955078 
	C452.438904,1362.527710 456.674316,1393.320435 457.718262,1424.486816 
	C457.854340,1428.548706 458.853760,1429.515625 462.852753,1428.126465 
	C469.942413,1425.663818 476.054413,1421.864746 481.144836,1416.420898 
	C496.331207,1400.180298 504.951233,1381.045654 506.924347,1358.818604 
	C508.221527,1344.206055 512.388916,1330.088013 515.317200,1315.764771 
	C517.072510,1307.179321 530.139648,1304.662842 537.703491,1311.044678 
	C543.124939,1315.619019 545.053894,1321.610474 544.238647,1328.500610 
	C542.300903,1344.877930 541.159790,1361.304565 540.937134,1377.794067 
	C540.903503,1380.285278 540.979187,1382.778076 541.013428,1385.741699 
z"/>
<path fill="#241A17" opacity="1.000000" stroke="none" 
	d="
M1120.792725,1423.625732 
	C1135.741333,1424.043091 1150.213867,1424.429199 1164.684204,1424.890747 
	C1172.439087,1425.138062 1179.893555,1423.771973 1187.201782,1421.245361 
	C1194.713745,1418.648071 1204.200928,1421.494019 1209.283813,1427.700684 
	C1213.161621,1432.435913 1212.893555,1435.951782 1207.859131,1439.454468 
	C1200.772461,1444.385132 1192.507935,1445.546509 1184.140381,1445.981201 
	C1174.275513,1446.493652 1164.520142,1445.013916 1154.812256,1443.675293 
	C1138.939209,1441.486450 1125.223389,1445.637573 1113.306885,1456.234009 
	C1105.941895,1462.783081 1098.129395,1463.182739 1090.239990,1457.313843 
	C1079.784302,1449.535889 1077.555054,1438.698364 1079.375000,1426.570435 
	C1082.014771,1408.979736 1083.075684,1391.168457 1086.833862,1373.733643 
	C1088.184326,1367.468506 1087.173950,1361.677002 1083.740356,1356.091309 
	C1080.397583,1350.653198 1080.650879,1350.442749 1086.572144,1347.533936 
	C1099.081909,1341.388550 1111.375244,1334.812256 1124.341919,1329.595581 
	C1137.248291,1324.403198 1150.748657,1323.146973 1164.417603,1322.651367 
	C1166.603882,1322.572144 1168.753784,1323.028076 1170.607056,1324.258789 
	C1173.992554,1326.506836 1176.829712,1329.793091 1175.842163,1333.700806 
	C1175.166138,1336.376099 1170.977539,1336.310791 1168.207642,1336.980591 
	C1166.798584,1337.321411 1165.166016,1337.272949 1163.743652,1336.937378 
	C1153.114624,1334.429565 1143.249268,1336.952881 1133.804688,1341.593140 
	C1127.400024,1344.739746 1121.273438,1348.448120 1114.917603,1351.700439 
	C1112.846313,1352.760254 1112.833862,1353.684814 1113.827271,1355.533081 
	C1116.577393,1360.649780 1119.339722,1365.779541 1121.680664,1371.087891 
	C1122.864624,1373.772827 1124.624146,1373.254272 1126.553345,1372.954102 
	C1135.592407,1371.548340 1144.647339,1370.227417 1153.654297,1368.636963 
	C1161.906616,1367.179688 1169.780273,1368.134277 1177.696533,1370.807983 
	C1181.346069,1372.040771 1184.360840,1374.711548 1184.223389,1377.447144 
	C1184.072632,1380.450806 1180.249268,1382.427124 1176.744019,1382.984253 
	C1170.175415,1384.028076 1163.588745,1384.963135 1157.031860,1386.074585 
	C1148.021729,1387.601807 1139.045898,1389.337402 1130.380615,1392.319702 
	C1120.896362,1395.584106 1118.393433,1399.014771 1118.023804,1409.099487 
	C1117.917603,1411.995483 1116.933838,1414.635376 1116.029297,1417.304443 
	C1113.890625,1423.615356 1113.863281,1423.606079 1120.792725,1423.625732 
z"/>
<path fill="#251A17" opacity="1.000000" stroke="none" 
	d="
M576.264160,1403.582764 
	C575.594116,1402.217773 573.982300,1401.464844 575.784607,1399.979126 
	C581.075256,1395.618408 588.229370,1395.503540 593.348206,1400.334717 
	C601.343018,1407.880005 609.458008,1415.277222 617.910950,1422.306152 
	C623.779724,1427.186157 626.716003,1426.704224 630.510193,1420.133423 
	C630.925659,1419.413940 631.313904,1418.678589 631.727722,1417.958008 
	C640.330444,1402.978760 637.424255,1390.294312 623.065735,1380.315430 
	C618.673706,1377.263184 613.815491,1375.027466 608.901184,1373.040283 
	C593.429810,1366.783936 582.151917,1356.000854 573.966309,1341.661255 
	C572.550781,1339.181519 572.679077,1336.974609 573.909973,1334.607422 
	C580.153625,1322.599487 588.908325,1313.506958 602.469360,1309.992554 
	C607.143860,1308.781128 611.625854,1307.105713 616.042480,1305.114502 
	C628.731934,1299.393433 647.645691,1305.305054 654.156311,1316.861450 
	C655.350830,1318.981689 657.170776,1321.100464 654.866943,1323.616455 
	C652.675415,1326.009766 649.770752,1327.605835 646.881287,1326.057007 
	C639.611267,1322.160156 633.955994,1324.943115 628.074890,1329.173828 
	C623.505676,1332.460815 618.365417,1334.942993 613.600281,1337.973633 
	C611.231506,1339.480225 608.958923,1341.235229 606.955933,1343.197388 
	C603.727417,1346.360352 603.913757,1348.500244 608.014526,1350.524536 
	C614.861816,1353.904907 621.909973,1356.889038 628.934448,1359.897705 
	C639.183228,1364.287476 649.216492,1369.061157 658.345154,1375.542969 
	C666.265747,1381.167114 672.155884,1387.977173 672.343018,1398.418335 
	C672.383423,1400.676392 673.220154,1403.003540 674.067871,1405.149658 
	C678.443115,1416.224854 675.094543,1425.369507 667.006592,1433.189453 
	C662.822510,1437.234741 658.442200,1441.131836 653.809692,1444.646484 
	C645.219177,1451.164185 635.617981,1449.745972 626.075195,1447.358032 
	C620.348572,1445.925049 615.207031,1443.121338 610.697693,1439.377686 
	C597.983337,1428.822021 586.072083,1417.463623 576.264160,1403.582764 
z"/>
<path fill="#251A17" opacity="1.000000" stroke="none" 
	d="
M758.659668,1390.425049 
	C758.122864,1407.329590 757.388977,1423.778687 758.247864,1440.274170 
	C758.651855,1448.031616 755.865173,1450.137085 748.133789,1448.972168 
	C730.560730,1446.324585 721.866699,1434.226807 723.035339,1418.316040 
	C725.134155,1389.740845 724.075623,1361.066895 724.257263,1332.576050 
	C722.658630,1331.427856 721.888977,1332.795898 721.058228,1333.340210 
	C715.077148,1337.258301 708.923889,1340.970703 703.292969,1345.349731 
	C697.928589,1349.521362 692.497192,1349.991089 686.465698,1347.650513 
	C684.352356,1346.830566 681.951477,1346.543823 681.794128,1343.328613 
	C681.650513,1340.391968 681.618530,1337.985474 684.369080,1335.869873 
	C692.020874,1329.984009 699.730652,1324.191528 707.524109,1318.490967 
	C713.657104,1314.005127 720.132446,1312.675049 727.286194,1314.157227 
	C738.849426,1316.553101 749.355225,1313.789062 759.354309,1308.121948 
	C762.531799,1306.321167 765.631836,1304.370239 768.885254,1302.720703 
	C772.048645,1301.116577 775.382385,1300.172241 778.946899,1301.658325 
	C787.813721,1305.354370 789.202942,1310.653687 783.420593,1318.233032 
	C779.450684,1323.436768 774.425842,1327.016968 768.208740,1328.999023 
	C762.932922,1330.681152 760.117737,1333.718750 760.105591,1339.869995 
	C760.081970,1351.679810 756.734985,1363.247437 756.951538,1375.141602 
	C757.042969,1380.162476 757.365723,1385.108765 758.659668,1390.425049 
z"/>
</svg>